<svg width="351" height="272" viewBox="0 0 351 272" fill="none" xmlns="http://www.w3.org/2000/svg">
<path d="M3.36257 1.23763C3.8238 1.64339 5.28722 1.72856 6.48986 1.34384C7.6925 0.959124 13.446 1.33184 19.1596 2.27062C24.9734 3.17734 30.326 3.67829 31.228 3.38975C32.13 3.10122 33.6576 3.38716 34.6161 3.96584C35.5745 4.54453 37.1022 4.83047 38.1043 4.50987C39.1065 4.18928 40.6342 4.47522 41.5926 5.0539C42.5511 5.63259 44.0787 5.91853 44.9807 5.62999C45.8827 5.34146 47.2138 5.35829 47.8755 5.69994C49.5958 6.5882 60.3536 8.79057 68.3285 9.89125C71.6844 10.367 78.0918 11.7478 82.5026 13.1033C86.9814 14.3264 90.931 15.2762 91.4321 15.1159C92.5345 14.7633 117.876 22.1492 120.787 23.6524C122.111 24.3357 125.459 25.4778 128.246 26.2463C131 26.9143 135.64 28.6394 138.519 30.0422C141.398 31.4451 145.272 33.1938 147.293 33.9858C149.214 34.81 154.411 37.242 159.01 39.5331C163.477 41.7559 168.642 44.0874 170.467 44.6104C172.359 45.001 173.979 45.9213 174.14 46.4232C174.3 46.9252 176.843 48.657 179.686 50.2927C194.171 58.2745 205.54 65.1504 205.797 65.9535C205.99 66.5559 208.167 68.1831 210.613 69.6138C213.092 71.1449 217.351 74.0982 220.054 76.332C222.825 78.4334 225.797 80.4706 226.627 80.6477C227.557 80.7928 228.544 81.8051 228.865 82.809C229.186 83.8129 230.337 84.9939 231.364 85.4401C232.39 85.8864 233.509 86.967 233.83 87.9709C234.152 88.9747 235.271 90.0554 236.297 90.5016C237.324 90.9479 238.379 91.8277 238.571 92.43C238.957 93.6347 244.183 99.2665 246.461 100.862C248.31 102.151 258.43 116.177 261.267 121.245C270.134 137.221 270.391 138.024 272.567 156.915C273.573 164.893 270.448 181.717 266.618 190.467C266.106 191.627 264.872 194.678 264.011 197.166C262.121 202.308 260.553 202.588 259.108 198.071C258.562 196.364 257.154 194.38 255.931 193.665C254.708 192.949 253.2 190.997 252.586 189.423C251.939 187.749 250.728 186.034 249.802 185.555C249.008 185.145 247.989 184.033 247.732 183.23C247.475 182.426 246.324 181.245 245.101 180.53C243.878 179.815 242.369 177.863 241.755 176.289C241.109 174.614 239.898 172.899 238.971 172.421C238.177 172.011 237.126 170.798 236.837 169.894C236.548 168.991 235.429 167.91 234.403 167.464C233.376 167.018 232.032 165.234 231.422 163.327C230.684 161.018 229.633 159.805 228.005 159.551C226.377 159.297 225.555 158.453 225.57 157.121C225.55 156.021 224.699 154.743 223.573 154.329C222.546 153.883 221.459 152.903 221.202 152.1C220.945 151.296 219.826 150.216 218.768 149.669C217.677 149.022 216.494 147.741 216.205 146.837C215.883 145.833 214.732 144.652 213.706 144.206C212.679 143.76 211.56 142.679 211.239 141.675C210.918 140.672 209.799 139.591 208.772 139.145C207.746 138.698 206.691 137.819 206.466 137.116C205.952 135.51 201.115 130.749 198.669 129.319C197.843 128.808 196.76 127.495 196.471 126.591C196.15 125.587 194.999 124.406 193.972 123.96C192.946 123.514 191.794 122.333 191.473 121.329C191.12 120.225 190.462 119.55 189.861 119.742C189.36 119.903 188.173 118.954 187.39 117.545C186.508 116.167 184.996 114.548 183.969 114.102C183.043 113.624 181.992 112.411 181.703 111.507C181.382 110.503 179.998 109.286 178.575 108.635C177.051 108.016 176.064 107.003 176.172 106.305C176.412 105.675 174.764 104.321 172.546 103.26C170.329 102.198 168.219 100.439 167.866 99.3343C167.513 98.2301 166.362 97.0491 165.335 96.6028C164.309 96.1566 163.19 95.0759 162.901 94.1725C162.579 93.1686 160.534 91.6096 158.417 90.5164C156.199 89.4552 154.254 87.8642 153.933 86.8603C153.644 85.9568 152.525 84.8762 151.498 84.43C150.472 83.9837 149.353 82.9031 149.064 81.9996C148.743 80.9957 146.697 79.4368 144.58 78.3435C142.362 77.2823 140.417 75.6913 140.128 74.7879C139.839 73.8844 137.794 72.3254 135.676 71.2322C133.459 70.171 131.61 68.8812 131.482 68.4796C131.161 67.4757 130.435 66.9333 123.625 62.9146C121.015 61.3152 118.608 59.3184 118.319 58.4149C118.03 57.5114 115.191 55.5425 111.947 54.0351C108.703 52.5277 105.96 50.8599 105.799 50.358C105.606 49.7557 104.877 49.5465 104.175 49.7709C103.574 49.9632 101.593 48.6051 99.8159 46.8496C96.3985 43.0737 86.8063 37.9533 86.1252 39.2778C85.3079 40.8671 91.4722 45.9775 97.1985 48.6828C100.278 50.0215 102.921 51.7213 103.082 52.2233C103.274 52.8256 104.136 53.1031 104.938 52.8466C105.84 52.5581 106.73 53.2692 107.148 54.5743C107.565 55.8793 109.707 57.7394 111.824 58.8327C114.042 59.8939 115.955 61.3845 116.18 62.0872C116.405 62.7899 116.93 63.3964 117.395 63.469C118.959 63.5221 124.858 68.4958 125.308 69.9013C125.565 70.7044 127.446 72.0946 129.599 72.955C131.684 73.9479 133.73 75.5068 134.051 76.5107C134.372 77.5145 136.349 79.2059 138.567 80.2671C140.684 81.3604 142.762 83.0197 143.083 84.0236C143.404 85.0275 144.459 85.9073 145.357 85.952C146.287 86.0971 147.374 87.0773 147.759 88.282C148.145 89.4866 150.186 91.3788 152.404 92.44C154.521 93.5332 156.534 94.9918 156.791 95.7949C157.016 96.4976 158.135 97.5782 159.193 98.1248C160.284 98.7719 161.468 100.053 161.757 100.957C162.078 101.961 163.229 103.142 164.255 103.588C165.282 104.034 166.369 105.014 166.626 105.817C166.883 106.621 168.002 107.701 169.06 108.248C170.151 108.895 171.334 110.176 171.655 111.18C172.009 112.284 173.328 113.301 174.623 113.551C176.251 113.804 177.073 114.648 177.058 115.981C177.078 117.081 177.929 118.358 179.056 118.772C180.082 119.219 181.201 120.299 181.522 121.303C181.843 122.307 182.962 123.388 183.989 123.834C185.016 124.28 186.167 125.461 186.488 126.465C186.841 127.569 187.499 128.244 188.1 128.052C188.601 127.892 189.788 128.84 190.571 130.249C191.453 131.627 192.965 133.246 193.992 133.692C194.918 134.17 196.001 135.484 196.29 136.387C196.612 137.391 197.763 138.572 198.789 139.018C199.816 139.465 201.095 141.047 201.577 142.553C202.476 145.364 206.616 150.015 209.756 151.888C210.682 152.366 211.958 154.282 212.536 156.089C213.146 157.997 214.49 159.78 215.516 160.226C216.543 160.672 217.662 161.753 217.983 162.757C218.304 163.761 219.423 164.841 220.45 165.288C221.476 165.734 222.82 167.517 223.398 169.324C223.976 171.131 225.32 172.915 226.346 173.361C227.373 173.807 228.492 174.888 228.813 175.892C229.134 176.895 230.253 177.976 231.28 178.422C232.306 178.869 233.618 180.551 234.164 182.258C234.71 183.965 236.086 185.848 237.309 186.564C238.4 187.211 239.908 189.163 240.454 190.869C241.1 192.544 242.312 194.259 243.306 194.605C244.2 194.983 245.412 196.698 245.958 198.404C246.504 200.111 247.779 202.027 248.738 202.605C251.116 204.169 255.408 209.989 257.715 214.783C260.48 220.317 263.418 219.488 266.932 212.167C268.366 209.053 282.5 181.403 298.268 150.575L326.909 94.7138L331.218 93.3352C336.831 91.5399 343.102 93.1856 346.712 97.5638C353.803 105.919 354.08 105.056 312.671 185.584C292.544 224.889 275.393 257.266 274.691 257.491C273.99 257.715 272.912 258.834 272.199 260.059C270.263 263.333 265.372 263.238 257.889 259.878C251.83 257.168 251.337 256.662 249.892 252.144C248.928 249.133 247.721 247.085 246.462 246.602C245.303 246.087 243.995 244.071 243.032 241.06C242.068 238.048 240.76 236.032 239.601 235.517C238.575 235.071 237.327 233.589 236.846 232.083C236.396 230.678 234.338 227.352 232.405 224.762C230.339 222.103 228.706 219.416 228.782 218.617C228.858 217.818 227.971 216.774 226.844 216.359C225.818 215.913 224.474 214.13 223.896 212.323C223.318 210.516 221.974 208.732 220.948 208.286C219.921 207.84 218.641 206.257 218.16 204.752C217.678 203.246 216.045 200.559 214.633 198.908C213.189 197.157 211.556 194.47 211.107 193.064C210.625 191.559 209.281 189.775 208.058 189.06C206.835 188.345 205.327 186.393 204.713 184.818C204.067 183.144 202.855 181.429 201.929 180.951C201.135 180.541 199.923 178.826 199.377 177.119C198.864 175.513 197.488 173.629 196.265 172.914C195.041 172.198 193.533 170.246 192.919 168.672C192.273 166.998 191.062 165.283 190.135 164.804C189.341 164.394 188.098 162.579 187.552 160.872C187.006 159.166 185.895 157.419 184.968 156.94C183.38 156.12 179.08 150.967 176.862 147.14C176.111 145.83 174.599 144.211 173.508 143.564C172.317 142.949 170.909 140.965 170.295 139.391C169.649 137.717 168.438 136.002 167.511 135.523C166.717 135.113 165.666 133.9 165.377 132.997C165.088 132.093 163.969 131.013 162.943 130.566C161.916 130.12 160.572 128.337 159.962 126.429C159.224 124.121 158.173 122.907 156.545 122.654C154.917 122.4 154.095 121.556 154.11 120.223C154.09 119.123 153.239 117.846 152.113 117.432C151.086 116.986 149.967 115.905 149.646 114.901C149.325 113.897 148.206 112.817 147.179 112.37C146.153 111.924 145.098 111.044 144.905 110.442C144.713 109.84 142.282 107.076 139.619 104.276C136.955 101.476 134.396 98.3111 134.011 97.1065C133.657 96.0022 131.548 94.2425 129.431 93.1492C127.213 92.088 125.268 90.497 124.947 89.4932C124.658 88.5897 123.539 87.509 122.512 87.0628C121.486 86.6166 120.367 85.5359 120.045 84.5321C119.724 83.5282 118.605 82.4475 117.579 82.0013C116.552 81.5551 115.433 80.4744 115.112 79.4705C114.791 78.4667 113.672 77.386 112.645 76.9398C111.619 76.4936 110.468 75.3125 110.147 74.3087C109.825 73.3048 108.839 72.2925 107.909 72.1474C107.079 71.9703 105.097 70.6121 103.75 69.162C100.625 65.9564 88.1245 56.2333 85.578 54.8347C84.5515 54.3885 83.5648 53.3762 83.3721 52.7738C83.1473 52.0711 81.1662 50.713 79.0488 49.6197C76.8313 48.5585 74.9825 47.2687 74.8219 46.7668C74.6935 46.3652 73.8635 46.1881 73.0617 46.4445C70.5562 47.246 72.6425 51.0051 77.0378 53.6935C79.2193 54.9876 81.2968 56.6469 81.5216 57.3496C81.7785 58.1527 83.6594 59.5429 85.877 60.6041C87.9943 61.6974 90.0396 63.2563 90.3287 64.1598C90.6177 65.0633 92.5628 66.6543 94.7804 67.7155C99.6125 70.0428 100.877 72.9583 97.5693 74.0163C96.2664 74.433 94.6026 74.412 93.8086 74.002C92.0882 73.1138 85.2334 75.8599 85.4826 77.3294C85.5429 77.8634 86.5695 78.3097 87.7361 78.1578C88.7704 77.9376 90.6309 78.2277 91.6574 78.674C92.684 79.1202 94.845 79.3142 96.577 79.2028C98.2088 79.1234 100.635 79.4541 101.958 80.1374C103.249 80.7202 106.429 82.0269 108.915 82.8915C111.401 83.7562 113.679 85.3514 114 86.3553C114.321 87.3591 115.472 88.5401 116.499 88.9864C117.526 89.4326 118.645 90.5133 118.966 91.5171C119.287 92.521 120.406 93.6016 121.432 94.0479C122.459 94.4941 123.578 95.5748 123.899 96.5786C124.22 97.5825 125.339 98.6631 126.366 99.1094C127.392 99.5556 128.543 100.737 128.865 101.741C129.186 102.744 129.94 103.72 130.638 103.829C132.795 104.356 132.575 106.087 130.35 105.692C122.908 104.531 103.444 106.885 102.851 109.177C102.467 110.738 105.743 112.346 107.948 111.641C110.353 110.871 125.938 112.968 129.88 114.584C147.006 121.5 150.439 123.943 154.869 132.264C155.651 133.674 157.031 135.224 158.025 135.57C159.02 135.916 160.263 137.731 160.841 139.538C161.42 141.345 162.763 143.129 163.79 143.575C165.943 144.435 167.272 147.551 166.157 148.904C165.753 149.365 164.49 149.216 163.431 148.669C162.272 148.155 160.745 147.869 160.043 148.093C159.341 148.318 155.717 148.039 151.896 147.49C148.175 146.91 142.851 146.843 140.016 147.307C137.182 147.771 134.552 147.837 133.99 147.464C132.903 146.484 123.515 149.598 123.099 151.059C122.991 151.757 123.716 152.3 124.815 152.28C125.946 152.361 133.656 153.325 142.096 154.498C157.28 156.723 158.739 157.142 170.096 162.251C173.44 163.727 177.414 165.443 178.938 166.062C182.017 167.401 191.464 179.318 191.337 181.683C191.261 182.482 192.147 183.526 193.274 183.941C194.301 184.387 195.548 185.869 195.965 187.174C196.415 188.579 198.277 191.636 200.046 194.058C201.883 196.347 203.086 198.729 202.814 199.258C202.642 199.756 200.449 199.462 198.063 198.565C195.709 197.769 193.119 197.269 192.317 197.526C191.515 197.782 190.088 197.464 189.129 196.886C188.171 196.307 186.744 195.989 185.842 196.278C185.04 196.534 180.517 196.21 175.898 195.585C171.279 194.96 166.556 194.701 165.454 195.053C164.351 195.406 163.121 195.357 162.559 194.983C162.098 194.578 159.135 194.64 156.032 195.301C152.797 195.893 149.866 196.056 149.405 195.65C148.021 194.433 145.676 195.736 146.19 197.342C146.447 198.146 147.574 198.56 148.676 198.207C149.779 197.854 151.206 198.172 151.764 198.879C152.421 199.554 153.749 199.904 154.851 199.552C156.054 199.167 159.578 199.478 162.83 200.319C165.981 201.192 169.005 201.664 169.406 201.535C170.909 201.054 187.124 206.159 192.751 208.896C195.762 210.367 199.074 211.742 200.137 211.956C202.162 212.414 214.368 218.801 218.198 221.449C219.618 222.434 221.126 224.386 221.608 225.891C222.09 227.397 223.69 229.984 225.102 231.635C226.546 233.386 228.404 236.775 229.175 239.185C230.106 242.096 231.35 243.911 232.641 244.494C236.318 245.974 235.661 256.697 231.852 257.915C230.85 258.236 229.74 259.255 229.395 260.25C227.99 263.799 211.374 270.221 201.311 271.226C187.716 272.588 168.713 266.715 152.263 256.042C146.151 252.132 138.471 245.736 137.989 244.23C137.765 243.528 136.71 242.648 135.683 242.201C134.657 241.755 133.538 240.675 133.249 239.771C132.96 238.868 131.744 237.486 130.621 236.738C129.466 235.891 128.155 234.208 127.769 233.003C127.384 231.798 125.848 229.413 124.436 227.762C122.27 225.135 119.978 219.007 111.825 193.175C106.402 175.876 100.38 155.67 98.6007 148.383C96.8899 140.962 94.6253 132.502 93.6619 129.49C90.1615 118.548 76.5331 85.6147 74.5957 83.3573C73.5127 82.0438 71.9158 79.1242 71.0449 76.7469C70.0737 74.4017 68.3124 71.3133 67.0329 69.7307C65.7533 68.1482 64.2849 65.6301 63.7711 64.0238C63.2572 62.4176 61.9456 60.7347 60.919 60.2884C59.8924 59.8422 58.5486 58.0589 57.9706 56.2519C57.3925 54.4449 56.0487 52.6615 55.0222 52.2153C53.9956 51.7691 52.6518 49.9857 52.0738 48.1787C51.4957 46.3717 50.1519 44.5884 49.1254 44.1422C48.0988 43.6959 46.9798 42.6153 46.6587 41.6114C46.3375 40.6075 45.2185 39.5269 44.192 39.0807C43.1654 38.6344 42.0464 37.5538 41.7253 36.5499C41.4041 35.546 40.2851 34.4654 39.2586 34.0192C38.232 33.5729 37.113 32.4923 36.7918 31.4884C36.4707 30.4845 35.3517 29.4039 34.3251 28.9577C33.2986 28.5114 32.1796 27.4308 31.8906 26.5273C31.6015 25.6238 29.5562 24.0649 27.4388 22.9716C25.2213 21.9104 23.3083 20.4198 23.0835 19.7171C22.5697 18.1109 13.2693 10.7946 6.75669 7.01286C1.69979 3.98277 -0.566472 1.3879 1.43792 0.746706C2.03924 0.554348 2.86923 0.731482 3.36257 1.23763ZM63.779 43.3277C64.1644 44.5323 67.7091 45.9436 69.3126 45.4306C70.4151 45.078 69.079 42.6282 67.491 41.8082C65.2413 40.6467 63.201 41.5207 63.779 43.3277ZM138.862 200.682C137.745 202.368 137.805 202.902 139.028 203.617C140.351 204.301 140.688 203.972 140.707 202.306C140.787 201.173 141.203 199.712 141.676 199.118C142.318 198.36 142.221 198.059 141.419 198.315C140.918 198.476 139.708 199.527 138.862 200.682Z" fill="white"/>
</svg>
