<svg width="894" height="329" viewBox="0 0 894 329" fill="none" xmlns="http://www.w3.org/2000/svg">
<g clip-path="url(#clip0_25_44)">
<path d="M25.3626 14.2376C25.8238 14.6434 27.2872 14.7286 28.4899 14.3438C29.6925 13.9591 35.446 14.3318 41.1596 15.2706C46.9734 16.1773 52.326 16.6783 53.228 16.3898C54.13 16.1012 55.6576 16.3872 56.6161 16.9658C57.5745 17.5445 59.1022 17.8305 60.1043 17.5099C61.1065 17.1893 62.6342 17.4752 63.5926 18.0539C64.5511 18.6326 66.0787 18.9185 66.9807 18.63C67.8827 18.3415 69.2138 18.3583 69.8755 18.6999C71.5958 19.5882 82.3536 21.7906 90.3285 22.8913C93.6844 23.367 100.092 24.7478 104.503 26.1033C108.981 27.3264 112.931 28.2762 113.432 28.1159C114.534 27.7633 139.876 35.1492 142.787 36.6524C144.111 37.3357 147.459 38.4778 150.246 39.2463C153 39.9143 157.64 41.6394 160.519 43.0422C163.398 44.4451 167.272 46.1938 169.293 46.9858C171.214 47.81 176.411 50.242 181.01 52.5331C185.477 54.7559 190.642 57.0874 192.467 57.6104C194.359 58.001 195.979 58.9213 196.14 59.4232C196.3 59.9252 198.843 61.657 201.686 63.2927C216.171 71.2745 227.54 78.1504 227.797 78.9535C227.99 79.5559 230.167 81.1831 232.613 82.6138C235.092 84.1449 239.351 87.0982 242.054 89.332C244.825 91.4334 247.797 93.4706 248.627 93.6477C249.557 93.7928 250.544 94.8051 250.865 95.809C251.186 96.8129 252.337 97.9939 253.364 98.4401C254.39 98.8864 255.509 99.967 255.83 100.971C256.152 101.975 257.271 103.055 258.297 103.502C259.324 103.948 260.379 104.828 260.571 105.43C260.957 106.635 266.183 112.266 268.461 113.862C270.31 115.151 280.43 129.177 283.267 134.245C292.134 150.221 292.391 151.024 294.567 169.915C295.573 177.893 292.448 194.717 288.618 203.467C288.106 204.627 286.872 207.678 286.011 210.166C284.121 215.308 282.553 215.588 281.108 211.071C280.562 209.364 279.154 207.38 277.931 206.665C276.708 205.949 275.2 203.997 274.586 202.423C273.939 200.749 272.728 199.034 271.802 198.555C271.008 198.145 269.989 197.033 269.732 196.23C269.475 195.426 268.324 194.245 267.101 193.53C265.878 192.815 264.369 190.863 263.755 189.289C263.109 187.614 261.898 185.899 260.971 185.421C260.177 185.011 259.126 183.798 258.837 182.894C258.548 181.991 257.429 180.91 256.403 180.464C255.376 180.018 254.032 178.234 253.422 176.327C252.684 174.018 251.633 172.805 250.005 172.551C248.377 172.297 247.555 171.453 247.57 170.121C247.55 169.021 246.699 167.743 245.573 167.329C244.546 166.883 243.459 165.903 243.202 165.1C242.945 164.296 241.826 163.216 240.768 162.669C239.677 162.022 238.494 160.741 238.205 159.837C237.883 158.833 236.732 157.652 235.706 157.206C234.679 156.76 233.56 155.679 233.239 154.675C232.918 153.672 231.799 152.591 230.772 152.145C229.746 151.698 228.691 150.819 228.466 150.116C227.952 148.51 223.115 143.749 220.669 142.319C219.843 141.808 218.76 140.495 218.471 139.591C218.15 138.587 216.999 137.406 215.972 136.96C214.946 136.514 213.794 135.333 213.473 134.329C213.12 133.225 212.462 132.55 211.861 132.742C211.36 132.903 210.173 131.954 209.39 130.545C208.508 129.167 206.996 127.548 205.969 127.102C205.043 126.624 203.992 125.411 203.703 124.507C203.382 123.503 201.998 122.286 200.575 121.635C199.051 121.016 198.064 120.003 198.172 119.305C198.412 118.675 196.764 117.321 194.546 116.26C192.329 115.198 190.219 113.439 189.866 112.334C189.513 111.23 188.362 110.049 187.335 109.603C186.309 109.157 185.19 108.076 184.901 107.172C184.579 106.169 182.534 104.61 180.417 103.516C178.199 102.455 176.254 100.864 175.933 99.8603C175.644 98.9568 174.525 97.8762 173.498 97.43C172.472 96.9837 171.353 95.9031 171.064 94.9996C170.743 93.9957 168.697 92.4368 166.58 91.3435C164.362 90.2823 162.417 88.6913 162.128 87.7879C161.839 86.8844 159.794 85.3254 157.676 84.2322C155.459 83.171 153.61 81.8812 153.482 81.4796C153.161 80.4757 152.435 79.9333 145.625 75.9146C143.015 74.3152 140.608 72.3184 140.319 71.4149C140.03 70.5114 137.191 68.5425 133.947 67.0351C130.703 65.5277 127.96 63.8599 127.799 63.358C127.606 62.7557 126.877 62.5465 126.175 62.7709C125.574 62.9632 123.593 61.6051 121.816 59.8496C118.398 56.0737 108.806 50.9533 108.125 52.2778C107.308 53.8671 113.472 58.9775 119.199 61.6828C122.278 63.0215 124.921 64.7213 125.082 65.2233C125.274 65.8256 126.136 66.1031 126.938 65.8466C127.84 65.5581 128.73 66.2692 129.148 67.5743C129.565 68.8793 131.707 70.7394 133.824 71.8327C136.042 72.8939 137.955 74.3845 138.18 75.0872C138.405 75.7899 138.93 76.3964 139.395 76.469C140.959 76.5221 146.858 81.4958 147.308 82.9013C147.565 83.7044 149.446 85.0946 151.599 85.955C153.684 86.9479 155.73 88.5068 156.051 89.5107C156.372 90.5145 158.349 92.2059 160.567 93.2671C162.684 94.3604 164.762 96.0197 165.083 97.0236C165.404 98.0275 166.459 98.9073 167.357 98.952C168.287 99.0971 169.374 100.077 169.759 101.282C170.145 102.487 172.186 104.379 174.404 105.44C176.521 106.533 178.534 107.992 178.791 108.795C179.016 109.498 180.135 110.578 181.193 111.125C182.284 111.772 183.468 113.053 183.757 113.957C184.078 114.961 185.229 116.142 186.255 116.588C187.282 117.034 188.369 118.014 188.626 118.817C188.883 119.621 190.002 120.701 191.06 121.248C192.151 121.895 193.334 123.176 193.655 124.18C194.009 125.284 195.328 126.301 196.623 126.551C198.251 126.804 199.073 127.648 199.058 128.981C199.078 130.081 199.929 131.358 201.056 131.772C202.082 132.219 203.201 133.299 203.522 134.303C203.843 135.307 204.962 136.388 205.989 136.834C207.016 137.28 208.167 138.461 208.488 139.465C208.841 140.569 209.499 141.244 210.1 141.052C210.601 140.892 211.788 141.84 212.571 143.249C213.453 144.627 214.965 146.246 215.992 146.692C216.918 147.17 218.001 148.484 218.29 149.387C218.612 150.391 219.763 151.572 220.789 152.018C221.816 152.465 223.095 154.047 223.577 155.553C224.476 158.364 228.616 163.015 231.756 164.888C232.682 165.366 233.958 167.282 234.536 169.089C235.146 170.997 236.49 172.78 237.516 173.226C238.543 173.672 239.662 174.753 239.983 175.757C240.304 176.761 241.423 177.841 242.45 178.288C243.476 178.734 244.82 180.517 245.398 182.324C245.976 184.131 247.32 185.915 248.346 186.361C249.373 186.807 250.492 187.888 250.813 188.892C251.134 189.895 252.253 190.976 253.28 191.422C254.306 191.869 255.618 193.551 256.164 195.258C256.71 196.965 258.086 198.848 259.309 199.564C260.4 200.211 261.908 202.163 262.454 203.869C263.1 205.544 264.312 207.259 265.306 207.605C266.2 207.983 267.412 209.698 267.958 211.404C268.504 213.111 269.779 215.027 270.738 215.605C273.116 217.169 277.408 222.989 279.715 227.783C282.48 233.317 285.418 232.488 288.932 225.167C290.366 222.053 304.5 194.403 320.268 163.575L348.909 107.714L353.218 106.335C358.831 104.54 365.102 106.186 368.712 110.564C375.803 118.919 376.08 118.056 334.671 198.584C314.544 237.889 297.393 270.266 296.691 270.491C295.99 270.715 294.912 271.834 294.199 273.059C292.263 276.333 287.372 276.238 279.889 272.878C273.83 270.168 273.337 269.662 271.892 265.144C270.928 262.133 269.721 260.085 268.462 259.602C267.303 259.087 265.995 257.071 265.032 254.06C264.068 251.048 262.76 249.032 261.601 248.517C260.575 248.071 259.327 246.589 258.846 245.083C258.396 243.678 256.338 240.352 254.405 237.762C252.339 235.103 250.706 232.416 250.782 231.617C250.858 230.818 249.971 229.774 248.844 229.359C247.818 228.913 246.474 227.13 245.896 225.323C245.318 223.516 243.974 221.732 242.948 221.286C241.921 220.84 240.641 219.257 240.16 217.752C239.678 216.246 238.045 213.559 236.633 211.908C235.189 210.157 233.556 207.47 233.107 206.064C232.625 204.559 231.281 202.775 230.058 202.06C228.835 201.345 227.327 199.393 226.713 197.818C226.067 196.144 224.855 194.429 223.929 193.951C223.135 193.541 221.923 191.826 221.377 190.119C220.864 188.513 219.488 186.629 218.265 185.914C217.041 185.198 215.533 183.246 214.919 181.672C214.273 179.998 213.062 178.283 212.135 177.804C211.341 177.394 210.098 175.579 209.552 173.872C209.006 172.166 207.895 170.419 206.968 169.94C205.38 169.12 201.08 163.967 198.862 160.14C198.111 158.83 196.599 157.211 195.508 156.564C194.317 155.949 192.909 153.965 192.295 152.391C191.649 150.717 190.438 149.002 189.511 148.523C188.717 148.113 187.666 146.9 187.377 145.997C187.088 145.093 185.969 144.013 184.943 143.566C183.916 143.12 182.572 141.337 181.962 139.429C181.224 137.121 180.173 135.907 178.545 135.654C176.917 135.4 176.095 134.556 176.11 133.223C176.09 132.123 175.239 130.846 174.113 130.432C173.086 129.986 171.967 128.905 171.646 127.901C171.325 126.897 170.206 125.817 169.179 125.37C168.153 124.924 167.098 124.044 166.905 123.442C166.713 122.84 164.282 120.076 161.619 117.276C158.955 114.476 156.396 111.311 156.011 110.106C155.657 109.002 153.548 107.242 151.431 106.149C149.213 105.088 147.268 103.497 146.947 102.493C146.658 101.59 145.539 100.509 144.512 100.063C143.486 99.6166 142.367 98.5359 142.045 97.5321C141.724 96.5282 140.605 95.4475 139.579 95.0013C138.552 94.5551 137.433 93.4744 137.112 92.4705C136.791 91.4667 135.672 90.386 134.645 89.9398C133.619 89.4936 132.468 88.3125 132.147 87.3087C131.825 86.3048 130.839 85.2925 129.909 85.1474C129.079 84.9703 127.097 83.6121 125.75 82.162C122.625 78.9564 110.124 69.2333 107.578 67.8347C106.551 67.3885 105.565 66.3762 105.372 65.7738C105.147 65.0711 103.166 63.713 101.049 62.6197C98.8313 61.5585 96.9825 60.2687 96.8219 59.7668C96.6935 59.3652 95.8635 59.1881 95.0617 59.4445C92.5562 60.246 94.6425 64.0051 99.0378 66.6935C101.219 67.9876 103.297 69.6469 103.522 70.3496C103.778 71.1527 105.659 72.5429 107.877 73.6041C109.994 74.6974 112.04 76.2563 112.329 77.1598C112.618 78.0633 114.563 79.6543 116.78 80.7155C121.612 83.0428 122.877 85.9583 119.569 87.0163C118.266 87.433 116.603 87.412 115.809 87.002C114.088 86.1138 107.233 88.8599 107.483 90.3294C107.543 90.8634 108.569 91.3097 109.736 91.1578C110.77 90.9376 112.631 91.2277 113.657 91.674C114.684 92.1202 116.845 92.3142 118.577 92.2028C120.209 92.1234 122.635 92.4541 123.958 93.1374C125.249 93.7202 128.429 95.0269 130.915 95.8915C133.401 96.7562 135.679 98.3514 136 99.3553C136.321 100.359 137.472 101.54 138.499 101.986C139.526 102.433 140.645 103.513 140.966 104.517C141.287 105.521 142.406 106.602 143.432 107.048C144.459 107.494 145.578 108.575 145.899 109.579C146.22 110.583 147.339 111.663 148.366 112.109C149.392 112.556 150.543 113.737 150.865 114.741C151.186 115.744 151.94 116.72 152.638 116.829C154.795 117.356 154.575 119.087 152.35 118.692C144.908 117.531 125.444 119.885 124.851 122.177C124.467 123.738 127.743 125.346 129.948 124.641C132.353 123.871 147.938 125.968 151.88 127.584C169.006 134.5 172.439 136.943 176.869 145.264C177.651 146.674 179.031 148.224 180.025 148.57C181.02 148.916 182.263 150.731 182.841 152.538C183.42 154.345 184.763 156.129 185.79 156.575C187.943 157.435 189.272 160.551 188.157 161.904C187.753 162.365 186.49 162.216 185.431 161.669C184.272 161.155 182.745 160.869 182.043 161.093C181.341 161.318 177.717 161.039 173.896 160.49C170.175 159.91 164.851 159.843 162.016 160.307C159.182 160.771 156.552 160.837 155.99 160.464C154.903 159.484 145.515 162.598 145.099 164.059C144.991 164.757 145.716 165.3 146.815 165.28C147.946 165.361 155.656 166.325 164.096 167.498C179.28 169.723 180.739 170.142 192.096 175.251C195.44 176.727 199.414 178.443 200.938 179.062C204.017 180.401 213.464 192.318 213.337 194.683C213.261 195.482 214.147 196.526 215.274 196.941C216.301 197.387 217.548 198.869 217.965 200.174C218.415 201.579 220.277 204.636 222.046 207.058C223.883 209.347 225.086 211.729 224.814 212.258C224.642 212.756 222.449 212.462 220.063 211.565C217.709 210.769 215.119 210.269 214.317 210.526C213.515 210.782 212.088 210.464 211.129 209.886C210.171 209.307 208.744 208.989 207.842 209.278C207.04 209.534 202.517 209.21 197.898 208.585C193.279 207.96 188.556 207.701 187.454 208.053C186.351 208.406 185.121 208.357 184.559 207.983C184.098 207.578 181.135 207.64 178.032 208.301C174.797 208.893 171.866 209.056 171.405 208.65C170.021 207.433 167.676 208.736 168.19 210.342C168.447 211.146 169.574 211.56 170.676 211.207C171.779 210.854 173.206 211.172 173.764 211.879C174.421 212.554 175.749 212.904 176.851 212.552C178.054 212.167 181.578 212.478 184.83 213.319C187.981 214.192 191.005 214.664 191.406 214.535C192.909 214.054 209.124 219.159 214.751 221.896C217.762 223.367 221.074 224.742 222.137 224.956C224.162 225.414 236.368 231.801 240.198 234.449C241.618 235.434 243.126 237.386 243.608 238.891C244.09 240.397 245.69 242.984 247.102 244.635C248.546 246.386 250.404 249.775 251.175 252.185C252.106 255.096 253.35 256.911 254.641 257.494C258.318 258.974 257.661 269.697 253.852 270.915C252.85 271.236 251.74 272.255 251.395 273.25C249.99 276.799 233.374 283.221 223.311 284.226C209.716 285.588 190.713 279.715 174.263 269.042C168.151 265.132 160.471 258.736 159.989 257.23C159.765 256.528 158.71 255.648 157.683 255.201C156.657 254.755 155.538 253.675 155.249 252.771C154.96 251.868 153.744 250.486 152.621 249.738C151.466 248.891 150.155 247.208 149.769 246.003C149.384 244.798 147.848 242.413 146.436 240.762C144.27 238.135 141.978 232.007 133.825 206.175C128.402 188.876 122.38 168.67 120.601 161.383C118.89 153.962 116.625 145.502 115.662 142.49C112.162 131.548 98.5331 98.6147 96.5957 96.3573C95.5127 95.0438 93.9158 92.1242 93.0449 89.7469C92.0737 87.4017 90.3124 84.3133 89.0329 82.7307C87.7533 81.1482 86.2849 78.6301 85.7711 77.0238C85.2572 75.4176 83.9456 73.7347 82.919 73.2884C81.8924 72.8422 80.5486 71.0589 79.9706 69.2519C79.3925 67.4449 78.0487 65.6615 77.0222 65.2153C75.9956 64.7691 74.6518 62.9857 74.0738 61.1787C73.4957 59.3717 72.1519 57.5884 71.1254 57.1422C70.0988 56.6959 68.9798 55.6153 68.6587 54.6114C68.3375 53.6075 67.2185 52.5269 66.192 52.0807C65.1654 51.6344 64.0464 50.5538 63.7253 49.5499C63.4041 48.546 62.2851 47.4654 61.2586 47.0192C60.232 46.5729 59.113 45.4923 58.7918 44.4884C58.4707 43.4845 57.3517 42.4039 56.3251 41.9577C55.2986 41.5114 54.1796 40.4308 53.8906 39.5273C53.6015 38.6238 51.5562 37.0649 49.4388 35.9716C47.2213 34.9104 45.3083 33.4198 45.0835 32.7171C44.5697 31.1109 35.2693 23.7946 28.7567 20.0129C23.6998 16.9828 21.4335 14.3879 23.4379 13.7467C24.0392 13.5543 24.8692 13.7315 25.3626 14.2376ZM85.779 56.3277C86.1644 57.5323 89.7091 58.9436 91.3126 58.4306C92.4151 58.078 91.079 55.6282 89.491 54.8082C87.2413 53.6467 85.201 54.5207 85.779 56.3277ZM160.862 213.682C159.745 215.368 159.805 215.902 161.028 216.617C162.351 217.301 162.688 216.972 162.707 215.306C162.787 214.173 163.203 212.712 163.676 212.118C164.318 211.36 164.221 211.059 163.419 211.315C162.918 211.476 161.708 212.527 160.862 213.682Z" fill="white"/>
<path d="M360.295 197.264V178.56H383.143V197.264H360.295ZM354.919 265.696V247.328H359.847V221.792H354.919V203.424H385.607V247.328H390.535V265.696H354.919ZM458.934 247.328V265.696H429.366V258.08C427.723 260.47 425.409 262.598 422.422 264.464C419.51 266.331 415.926 267.264 411.67 267.264C406.07 267.264 401.665 265.771 398.454 262.784C395.243 259.798 393.638 255.579 393.638 250.128C393.638 236.016 405.622 228.774 429.59 228.4C429.366 225.862 428.395 224.144 426.678 223.248C424.961 222.278 422.049 221.792 417.942 221.792C414.582 221.792 410.961 222.166 407.078 222.912C403.27 223.584 399.761 224.518 396.55 225.712V205.104C400.507 204.134 404.801 203.35 409.43 202.752C414.059 202.155 418.577 201.856 422.982 201.856C434.107 201.856 442.059 203.872 446.838 207.904C451.617 211.936 454.006 218.171 454.006 226.608V247.328H458.934ZM429.366 239.488C426.006 239.488 423.393 239.936 421.526 240.832C419.734 241.728 418.838 243.222 418.838 245.312C418.838 246.582 419.211 247.627 419.958 248.448C420.779 249.195 421.899 249.568 423.318 249.568C425.259 249.568 426.753 248.747 427.798 247.104C428.843 245.462 429.366 243.147 429.366 240.16V239.488ZM536.912 247.328V265.696H501.52V247.328H506.224V228.96C506.224 226.496 505.702 224.704 504.656 223.584C503.611 222.39 502.043 221.792 499.952 221.792C495.472 221.792 493.232 224.182 493.232 228.96V247.328H497.936V265.696H462.544V247.328H467.472V221.792H462.544V203.424H493.232V212.16C498.608 205.291 505.328 201.856 513.392 201.856C519.59 201.856 524.219 203.798 527.28 207.68C530.416 211.563 531.984 216.902 531.984 223.696V247.328H536.912ZM562.593 267.264C554.977 267.264 549.227 264.427 545.345 258.752C541.537 253.078 539.633 245.014 539.633 234.56C539.633 224.107 541.537 216.043 545.345 210.368C549.227 204.694 554.977 201.856 562.593 201.856C566.401 201.856 569.761 202.79 572.673 204.656C575.659 206.523 578.086 208.651 579.953 211.04V196.928H573.345V178.56H605.713V247.328H610.641V265.696H579.953V258.08C578.086 260.47 575.659 262.598 572.673 264.464C569.761 266.331 566.401 267.264 562.593 267.264ZM573.457 247.328C575.622 247.328 577.227 246.768 578.273 245.648C579.393 244.454 579.953 242.624 579.953 240.16V228.96C579.953 226.496 579.393 224.704 578.273 223.584C577.227 222.39 575.622 221.792 573.457 221.792C571.291 221.792 569.649 222.39 568.529 223.584C567.483 224.704 566.961 226.496 566.961 228.96V240.16C566.961 242.624 567.483 244.454 568.529 245.648C569.649 246.768 571.291 247.328 573.457 247.328ZM696.679 247.328H701.159V265.696H657.255V247.328H663.975L662.183 238.368H646.951L645.159 247.328H651.879V265.696H613.575V247.328H618.055L636.983 178.56H677.751L696.679 247.328ZM649.415 226.496H659.719L655.127 204.208H654.007L649.415 226.496ZM704.034 272.192H708.962V221.792H704.034V203.424H734.722V211.04C736.588 208.651 738.978 206.523 741.89 204.656C744.876 202.79 748.274 201.856 752.082 201.856C759.698 201.856 765.41 204.694 769.218 210.368C773.1 216.043 775.042 224.107 775.042 234.56C775.042 245.014 773.1 253.078 769.218 258.752C765.41 264.427 759.698 267.264 752.082 267.264C748.274 267.264 744.876 266.331 741.89 264.464C738.978 262.598 736.588 260.47 734.722 258.08V272.192H742.45V290.56H704.034V272.192ZM741.218 247.328C743.383 247.328 744.988 246.768 746.034 245.648C747.154 244.454 747.714 242.624 747.714 240.16V228.96C747.714 226.496 747.154 224.704 746.034 223.584C744.988 222.39 743.383 221.792 741.218 221.792C739.052 221.792 737.41 222.39 736.29 223.584C735.244 224.704 734.722 226.496 734.722 228.96V240.16C734.722 242.624 735.244 244.454 736.29 245.648C737.41 246.768 739.052 247.328 741.218 247.328ZM777.753 272.192H782.681V221.792H777.753V203.424H808.441V211.04C810.307 208.651 812.697 206.523 815.609 204.656C818.595 202.79 821.993 201.856 825.801 201.856C833.417 201.856 839.129 204.694 842.937 210.368C846.819 216.043 848.761 224.107 848.761 234.56C848.761 245.014 846.819 253.078 842.937 258.752C839.129 264.427 833.417 267.264 825.801 267.264C821.993 267.264 818.595 266.331 815.609 264.464C812.697 262.598 810.307 260.47 808.441 258.08V272.192H816.169V290.56H777.753V272.192ZM814.937 247.328C817.102 247.328 818.707 246.768 819.753 245.648C820.873 244.454 821.433 242.624 821.433 240.16V228.96C821.433 226.496 820.873 224.704 819.753 223.584C818.707 222.39 817.102 221.792 814.937 221.792C812.771 221.792 811.129 222.39 810.009 223.584C808.963 224.704 808.441 226.496 808.441 228.96V240.16C808.441 242.624 808.963 244.454 810.009 245.648C811.129 246.768 812.771 247.328 814.937 247.328Z" fill="white"/>
</g>
<defs>
<clipPath id="clip0_25_44">
<rect width="894" height="328.691" fill="white"/>
</clipPath>
</defs>
</svg>
